<svg width="48" height="49" viewBox="0 0 48 49" fill="none" xmlns="http://www.w3.org/2000/svg">
<path d="M45.3842 10.85C44.8686 10.5564 44.2854 10.4021 43.6922 10.4021C43.0989 10.4021 42.5157 10.5564 42.0002 10.85L34.8002 15.05V14.138C34.8002 12.7854 34.2629 11.4882 33.3065 10.5317C32.3499 9.57529 31.0527 9.03796 29.7002 9.03796H6.00015C4.64754 9.03796 3.35034 9.57529 2.39389 10.5317C1.43747 11.4882 0.900146 12.7854 0.900146 14.138V35.3899C0.900146 36.0597 1.03206 36.723 1.28836 37.3417C1.54465 37.9605 1.92033 38.5227 2.39389 38.9962C2.86747 39.4698 3.4297 39.8455 4.04845 40.1017C4.66722 40.3581 5.3304 40.4899 6.00015 40.4899H29.6762C30.3479 40.4932 31.0137 40.3636 31.6352 40.1086C32.2568 39.8538 32.8218 39.4786 33.2979 39.0048C33.774 38.5309 34.1519 37.9675 34.4097 37.3473C34.6674 36.7269 34.8002 36.0618 34.8002 35.3899V34.4779L42.0002 38.6299C42.5219 38.931 43.1139 39.0883 43.7162 39.0859C44.3148 39.0897 44.9034 38.9322 45.4202 38.6299C45.944 38.3332 46.3791 37.9021 46.6808 37.3812C46.9824 36.8601 47.1396 36.268 47.1362 35.6659V13.862C47.1447 13.2482 46.9863 12.6437 46.6776 12.1131C46.3691 11.5826 45.9219 11.1459 45.3842 10.85ZM31.7762 16.7299V35.3899C31.7762 35.9469 31.5549 36.481 31.161 36.8749C30.7673 37.2687 30.2331 37.4899 29.6762 37.4899H6.00015C5.44318 37.4899 4.90905 37.2687 4.51522 36.8749C4.1214 36.481 3.90015 35.9469 3.90015 35.3899V14.138C3.90331 13.5831 4.12596 13.052 4.51945 12.6608C4.91293 12.2696 5.44527 12.05 6.00015 12.05H29.6762C30.2331 12.05 30.7673 12.2712 31.161 12.665C31.5549 13.0589 31.7762 13.593 31.7762 14.15V16.7299ZM44.1002 35.6659C44.1015 35.7402 44.082 35.8134 44.0438 35.877C44.0057 35.9406 43.9503 35.9923 43.8842 36.0259C43.8224 36.0682 43.7492 36.0909 43.6742 36.0909C43.5992 36.0909 43.526 36.0682 43.4642 36.0259L34.8002 31.0099V18.5179L43.4882 13.502C43.55 13.4597 43.6232 13.437 43.6982 13.437C43.7732 13.437 43.8464 13.4597 43.9082 13.502C43.9743 13.5357 44.0297 13.5873 44.0678 13.651C44.106 13.7146 44.1255 13.7877 44.1242 13.862L44.1002 35.6659Z" fill="#1D1C1D"/>
<path d="M25.608 24.302C25.2419 24.1745 24.8403 24.1963 24.4901 24.3624C24.1397 24.5286 23.8689 24.8259 23.736 25.1901C23.2955 26.3883 22.4994 27.4231 21.4544 28.1563C20.4095 28.8895 19.1654 29.2858 17.8889 29.2924C16.6124 29.2989 15.3642 28.9153 14.3118 28.1928C13.2594 27.4704 12.4528 26.4436 12 25.25C11.8473 24.9131 11.5737 24.6458 11.2333 24.5011C10.8928 24.3563 10.5105 24.3448 10.1619 24.4685C9.81334 24.5923 9.52392 24.8424 9.35097 25.1694C9.17802 25.4964 9.13414 25.8763 9.22801 26.234C9.86803 28.0192 11.0439 29.5632 12.5947 30.6546C14.1455 31.7461 15.9956 32.3319 17.892 32.3319C19.7885 32.3319 21.6386 31.7461 23.1894 30.6546C24.7401 29.5632 25.916 28.0192 26.556 26.234C26.6291 26.0455 26.6622 25.8439 26.6534 25.642C26.6447 25.44 26.5941 25.2419 26.5052 25.0604C26.4161 24.8789 26.2904 24.7179 26.136 24.5874C25.9815 24.4569 25.8018 24.3596 25.608 24.302Z" fill="#1D1C1D"/>
<path d="M14.8442 23.438C15.1926 23.4403 15.5338 23.3395 15.8248 23.1481C16.116 22.9568 16.344 22.6835 16.48 22.3628C16.6161 22.0421 16.654 21.6883 16.5892 21.346C16.5244 21.0037 16.3597 20.6882 16.116 20.4394C15.8721 20.1905 15.5601 20.0195 15.2193 19.9478C14.8783 19.8761 14.5238 19.9069 14.2004 20.0363C13.877 20.1658 13.5991 20.3882 13.4019 20.6753C13.2047 20.9626 13.0969 21.3016 13.0922 21.65C13.0874 21.8831 13.1292 22.1147 13.215 22.3315C13.301 22.5482 13.4292 22.7456 13.5924 22.9121C13.7556 23.0786 13.9503 23.2109 14.1653 23.3012C14.3802 23.3915 14.611 23.438 14.8442 23.438Z" fill="#1D1C1D"/>
<path d="M20.5558 23.438C20.9041 23.4403 21.2454 23.3395 21.5365 23.1481C21.8277 22.9568 22.0555 22.6835 22.1916 22.3628C22.3276 22.0421 22.3657 21.6883 22.3009 21.346C22.2361 21.0037 22.0714 20.6882 21.8277 20.4394C21.5838 20.1905 21.2718 20.0195 20.9308 19.9478C20.59 19.8761 20.2354 19.9069 19.912 20.0363C19.5886 20.1658 19.3108 20.3882 19.1136 20.6753C18.9163 20.9626 18.8086 21.3016 18.8038 21.65C18.799 21.8831 18.8407 22.1147 18.9267 22.3315C19.0126 22.5482 19.1409 22.7456 19.3041 22.9121C19.4673 23.0786 19.662 23.2109 19.8769 23.3012C20.0919 23.3915 20.3227 23.438 20.5558 23.438Z" fill="#1D1C1D"/>
</svg>
